<mxfile host="app.diagrams.net" modified="2021-07-31T08:38:46.780Z" agent="5.0 (Macintosh; Intel Mac OS X 10_16_0) AppleWebKit/537.36 (KHTML, like Gecko) Chrome/81.0.4044.138 Safari/537.36" etag="jNJ4LgN-yzpgxrpW6she" version="14.9.3" type="github">
  <diagram id="KH7qL_hgCisb-ZAgvjp8" name="Page-1">
    <mxGraphModel dx="1186" dy="654" grid="1" gridSize="10" guides="1" tooltips="1" connect="1" arrows="1" fold="1" page="1" pageScale="1" pageWidth="827" pageHeight="1169" math="0" shadow="0">
      <root>
        <mxCell id="0" />
        <mxCell id="1" parent="0" />
        <mxCell id="2OhmoV6hdMlIxnM7W_6c-3" value="" style="edgeStyle=orthogonalEdgeStyle;rounded=0;orthogonalLoop=1;jettySize=auto;html=1;" parent="1" source="2OhmoV6hdMlIxnM7W_6c-1" target="2OhmoV6hdMlIxnM7W_6c-2" edge="1">
          <mxGeometry relative="1" as="geometry" />
        </mxCell>
        <mxCell id="2OhmoV6hdMlIxnM7W_6c-7" value="" style="edgeStyle=orthogonalEdgeStyle;rounded=0;orthogonalLoop=1;jettySize=auto;html=1;" parent="1" source="2OhmoV6hdMlIxnM7W_6c-1" target="2OhmoV6hdMlIxnM7W_6c-6" edge="1">
          <mxGeometry relative="1" as="geometry" />
        </mxCell>
        <mxCell id="2OhmoV6hdMlIxnM7W_6c-1" value="Node-0" style="rounded=0;whiteSpace=wrap;html=1;" parent="1" vertex="1">
          <mxGeometry x="110" y="80" width="120" height="60" as="geometry" />
        </mxCell>
        <mxCell id="2OhmoV6hdMlIxnM7W_6c-5" value="" style="edgeStyle=orthogonalEdgeStyle;rounded=0;orthogonalLoop=1;jettySize=auto;html=1;" parent="1" source="2OhmoV6hdMlIxnM7W_6c-2" target="2OhmoV6hdMlIxnM7W_6c-4" edge="1">
          <mxGeometry relative="1" as="geometry" />
        </mxCell>
        <mxCell id="2OhmoV6hdMlIxnM7W_6c-9" value="" style="edgeStyle=orthogonalEdgeStyle;rounded=0;orthogonalLoop=1;jettySize=auto;html=1;" parent="1" source="2OhmoV6hdMlIxnM7W_6c-2" target="2OhmoV6hdMlIxnM7W_6c-8" edge="1">
          <mxGeometry relative="1" as="geometry" />
        </mxCell>
        <mxCell id="2OhmoV6hdMlIxnM7W_6c-2" value="Node-1" style="rounded=0;whiteSpace=wrap;html=1;" parent="1" vertex="1">
          <mxGeometry x="110" y="220" width="120" height="60" as="geometry" />
        </mxCell>
        <mxCell id="2OhmoV6hdMlIxnM7W_6c-4" value="Node-n" style="rounded=0;whiteSpace=wrap;html=1;" parent="1" vertex="1">
          <mxGeometry x="110" y="360" width="120" height="60" as="geometry" />
        </mxCell>
        <mxCell id="2OhmoV6hdMlIxnM7W_6c-6" value="Node-3" style="rounded=0;whiteSpace=wrap;html=1;" parent="1" vertex="1">
          <mxGeometry x="310" y="80" width="120" height="60" as="geometry" />
        </mxCell>
        <mxCell id="2OhmoV6hdMlIxnM7W_6c-11" value="" style="edgeStyle=orthogonalEdgeStyle;rounded=0;orthogonalLoop=1;jettySize=auto;html=1;" parent="1" source="2OhmoV6hdMlIxnM7W_6c-8" target="2OhmoV6hdMlIxnM7W_6c-10" edge="1">
          <mxGeometry relative="1" as="geometry" />
        </mxCell>
        <mxCell id="2OhmoV6hdMlIxnM7W_6c-8" value="Node-2" style="rounded=0;whiteSpace=wrap;html=1;" parent="1" vertex="1">
          <mxGeometry x="310" y="220" width="120" height="60" as="geometry" />
        </mxCell>
        <mxCell id="2OhmoV6hdMlIxnM7W_6c-10" value="Node-4" style="rounded=0;whiteSpace=wrap;html=1;" parent="1" vertex="1">
          <mxGeometry x="510" y="220" width="120" height="60" as="geometry" />
        </mxCell>
        <mxCell id="2OhmoV6hdMlIxnM7W_6c-15" value="" style="edgeStyle=orthogonalEdgeStyle;rounded=0;orthogonalLoop=1;jettySize=auto;html=1;" parent="1" source="2OhmoV6hdMlIxnM7W_6c-12" target="2OhmoV6hdMlIxnM7W_6c-14" edge="1">
          <mxGeometry relative="1" as="geometry" />
        </mxCell>
        <mxCell id="2OhmoV6hdMlIxnM7W_6c-12" value="Node-0" style="rounded=0;whiteSpace=wrap;html=1;" parent="1" vertex="1">
          <mxGeometry x="30" y="480" width="120" height="60" as="geometry" />
        </mxCell>
        <mxCell id="2OhmoV6hdMlIxnM7W_6c-20" value="" style="edgeStyle=orthogonalEdgeStyle;rounded=0;orthogonalLoop=1;jettySize=auto;html=1;" parent="1" source="2OhmoV6hdMlIxnM7W_6c-13" target="2OhmoV6hdMlIxnM7W_6c-19" edge="1">
          <mxGeometry relative="1" as="geometry" />
        </mxCell>
        <mxCell id="udpxqmH2UBuyP6ELiqLf-3" style="edgeStyle=none;rounded=0;orthogonalLoop=1;jettySize=auto;html=1;exitX=0;exitY=0.25;exitDx=0;exitDy=0;entryX=1;entryY=0.25;entryDx=0;entryDy=0;" edge="1" parent="1" source="2OhmoV6hdMlIxnM7W_6c-13" target="2OhmoV6hdMlIxnM7W_6c-16">
          <mxGeometry relative="1" as="geometry" />
        </mxCell>
        <mxCell id="2OhmoV6hdMlIxnM7W_6c-13" value="Node-3" style="rounded=0;whiteSpace=wrap;html=1;" parent="1" vertex="1">
          <mxGeometry x="520" y="480" width="120" height="60" as="geometry" />
        </mxCell>
        <mxCell id="2OhmoV6hdMlIxnM7W_6c-17" value="" style="edgeStyle=orthogonalEdgeStyle;rounded=0;orthogonalLoop=1;jettySize=auto;html=1;" parent="1" source="2OhmoV6hdMlIxnM7W_6c-14" target="2OhmoV6hdMlIxnM7W_6c-16" edge="1">
          <mxGeometry relative="1" as="geometry" />
        </mxCell>
        <mxCell id="udpxqmH2UBuyP6ELiqLf-1" style="edgeStyle=none;rounded=0;orthogonalLoop=1;jettySize=auto;html=1;exitX=0;exitY=0.25;exitDx=0;exitDy=0;entryX=1;entryY=0.25;entryDx=0;entryDy=0;" edge="1" parent="1" source="2OhmoV6hdMlIxnM7W_6c-14" target="2OhmoV6hdMlIxnM7W_6c-12">
          <mxGeometry relative="1" as="geometry" />
        </mxCell>
        <mxCell id="2OhmoV6hdMlIxnM7W_6c-14" value="Node-1" style="rounded=0;whiteSpace=wrap;html=1;" parent="1" vertex="1">
          <mxGeometry x="190" y="480" width="120" height="60" as="geometry" />
        </mxCell>
        <mxCell id="2OhmoV6hdMlIxnM7W_6c-18" value="" style="edgeStyle=orthogonalEdgeStyle;rounded=0;orthogonalLoop=1;jettySize=auto;html=1;" parent="1" source="2OhmoV6hdMlIxnM7W_6c-16" target="2OhmoV6hdMlIxnM7W_6c-13" edge="1">
          <mxGeometry relative="1" as="geometry" />
        </mxCell>
        <mxCell id="udpxqmH2UBuyP6ELiqLf-2" style="edgeStyle=none;rounded=0;orthogonalLoop=1;jettySize=auto;html=1;exitX=0;exitY=0.25;exitDx=0;exitDy=0;entryX=1;entryY=0.25;entryDx=0;entryDy=0;" edge="1" parent="1" source="2OhmoV6hdMlIxnM7W_6c-16" target="2OhmoV6hdMlIxnM7W_6c-14">
          <mxGeometry relative="1" as="geometry" />
        </mxCell>
        <mxCell id="2OhmoV6hdMlIxnM7W_6c-16" value="Node-2" style="rounded=0;whiteSpace=wrap;html=1;" parent="1" vertex="1">
          <mxGeometry x="354" y="480" width="120" height="60" as="geometry" />
        </mxCell>
        <mxCell id="2OhmoV6hdMlIxnM7W_6c-22" value="" style="edgeStyle=orthogonalEdgeStyle;rounded=0;orthogonalLoop=1;jettySize=auto;html=1;" parent="1" source="2OhmoV6hdMlIxnM7W_6c-19" target="2OhmoV6hdMlIxnM7W_6c-21" edge="1">
          <mxGeometry relative="1" as="geometry" />
        </mxCell>
        <mxCell id="udpxqmH2UBuyP6ELiqLf-4" style="edgeStyle=none;rounded=0;orthogonalLoop=1;jettySize=auto;html=1;exitX=0;exitY=0.25;exitDx=0;exitDy=0;entryX=1;entryY=0.25;entryDx=0;entryDy=0;" edge="1" parent="1" source="2OhmoV6hdMlIxnM7W_6c-19" target="2OhmoV6hdMlIxnM7W_6c-13">
          <mxGeometry relative="1" as="geometry" />
        </mxCell>
        <mxCell id="2OhmoV6hdMlIxnM7W_6c-19" value="Node-4" style="rounded=0;whiteSpace=wrap;html=1;" parent="1" vertex="1">
          <mxGeometry x="670" y="480" width="120" height="60" as="geometry" />
        </mxCell>
        <mxCell id="udpxqmH2UBuyP6ELiqLf-5" style="edgeStyle=none;rounded=0;orthogonalLoop=1;jettySize=auto;html=1;exitX=0;exitY=0.25;exitDx=0;exitDy=0;entryX=1;entryY=0.25;entryDx=0;entryDy=0;" edge="1" parent="1" source="2OhmoV6hdMlIxnM7W_6c-21" target="2OhmoV6hdMlIxnM7W_6c-19">
          <mxGeometry relative="1" as="geometry" />
        </mxCell>
        <mxCell id="2OhmoV6hdMlIxnM7W_6c-21" value="Node-n" style="rounded=0;whiteSpace=wrap;html=1;" parent="1" vertex="1">
          <mxGeometry x="827" y="480" width="120" height="60" as="geometry" />
        </mxCell>
        <mxCell id="2OhmoV6hdMlIxnM7W_6c-23" value="" style="endArrow=classic;html=1;entryX=0.5;entryY=1;entryDx=0;entryDy=0;" parent="1" target="2OhmoV6hdMlIxnM7W_6c-12" edge="1">
          <mxGeometry width="50" height="50" relative="1" as="geometry">
            <mxPoint x="90" y="600" as="sourcePoint" />
            <mxPoint x="110" y="560" as="targetPoint" />
          </mxGeometry>
        </mxCell>
        <mxCell id="2OhmoV6hdMlIxnM7W_6c-25" value="head" style="edgeLabel;html=1;align=center;verticalAlign=middle;resizable=0;points=[];" parent="2OhmoV6hdMlIxnM7W_6c-23" vertex="1" connectable="0">
          <mxGeometry x="0.1" relative="1" as="geometry">
            <mxPoint as="offset" />
          </mxGeometry>
        </mxCell>
        <mxCell id="2OhmoV6hdMlIxnM7W_6c-24" value="" style="endArrow=classic;html=1;entryX=0.5;entryY=1;entryDx=0;entryDy=0;" parent="1" target="2OhmoV6hdMlIxnM7W_6c-21" edge="1">
          <mxGeometry width="50" height="50" relative="1" as="geometry">
            <mxPoint x="887" y="600" as="sourcePoint" />
            <mxPoint x="886.5" y="550" as="targetPoint" />
          </mxGeometry>
        </mxCell>
        <mxCell id="2OhmoV6hdMlIxnM7W_6c-26" value="tail" style="edgeLabel;html=1;align=center;verticalAlign=middle;resizable=0;points=[];" parent="2OhmoV6hdMlIxnM7W_6c-24" vertex="1" connectable="0">
          <mxGeometry x="-0.1667" y="-1" relative="1" as="geometry">
            <mxPoint as="offset" />
          </mxGeometry>
        </mxCell>
      </root>
    </mxGraphModel>
  </diagram>
</mxfile>
